<mxfile host="65bd71144e">
    <diagram id="k4pz-A0R4742l1VpdUSy" name="Page-1">
        <mxGraphModel dx="664" dy="403" grid="0" gridSize="10" guides="0" tooltips="0" connect="1" arrows="1" fold="1" page="0" pageScale="1" pageWidth="850" pageHeight="1100" math="0" shadow="0">
            <root>
                <mxCell id="0"/>
                <mxCell id="1" parent="0"/>
                <mxCell id="2" value="App" style="rounded=1;whiteSpace=wrap;html=1;" vertex="1" parent="1">
                    <mxGeometry x="11" y="19" width="75" height="40" as="geometry"/>
                </mxCell>
                <mxCell id="4" value="header" style="rounded=1;whiteSpace=wrap;html=1;" vertex="1" parent="1">
                    <mxGeometry x="-88" y="20" width="75" height="40" as="geometry"/>
                </mxCell>
                <mxCell id="5" value="Shopping list" style="rounded=1;whiteSpace=wrap;html=1;" vertex="1" parent="1">
                    <mxGeometry x="10" y="77" width="75" height="40" as="geometry"/>
                </mxCell>
                <mxCell id="6" value="item form" style="rounded=1;whiteSpace=wrap;html=1;" vertex="1" parent="1">
                    <mxGeometry x="-79" y="145" width="75" height="40" as="geometry"/>
                </mxCell>
                <mxCell id="7" value="filter" style="rounded=1;whiteSpace=wrap;html=1;" vertex="1" parent="1">
                    <mxGeometry x="105" y="149" width="75" height="40" as="geometry"/>
                </mxCell>
                <mxCell id="8" value="item" style="rounded=1;whiteSpace=wrap;html=1;" vertex="1" parent="1">
                    <mxGeometry x="14" y="147" width="75" height="40" as="geometry"/>
                </mxCell>
            </root>
        </mxGraphModel>
    </diagram>
</mxfile>